<svg id="Layer_1" data-name="Layer 1" xmlns="http://www.w3.org/2000/svg" viewBox="0 0 91.86 87.27"><defs><style>.cls-1{fill:#231f20;}</style></defs><title>icon_cs</title><path class="cls-1" d="M82.41,61.77a11.68,11.68,0,0,0,5.88-3,10.27,10.27,0,0,0,0-15.11,11.61,11.61,0,0,0-5.88-3v21ZM66.34,81.17a6.86,6.86,0,0,1,3.84,1.17,26,26,0,0,0,5.46-7.81,24.55,24.55,0,0,0,2.17-10.12h0V38.21h0a25.14,25.14,0,0,0-8-18.31,28.83,28.83,0,0,0-39.08,0,25.14,25.14,0,0,0-8,18.31V64.49a2.09,2.09,0,0,1-2.08,2.08h-.21A16.43,16.43,0,0,1,9.09,62.12a14.81,14.81,0,0,1,0-21.76,16.4,16.4,0,0,1,9.1-4.3,29.8,29.8,0,0,1,9.39-19.48,33.32,33.32,0,0,1,45.36,0,29.79,29.79,0,0,1,9.39,19.47,16.36,16.36,0,0,1,9.1,4.31,14.8,14.8,0,0,1,0,21.75,16.36,16.36,0,0,1-9.09,4.31,29.17,29.17,0,0,1-2.52,10,30.57,30.57,0,0,1-6.89,9.64,6.89,6.89,0,1,1-6.59-4.89ZM68,86.44a2.3,2.3,0,1,0,.67,1.62A2.3,2.3,0,0,0,68,86.44ZM12.23,58.8a11.68,11.68,0,0,0,5.88,3v-21a11.67,11.67,0,0,0-5.88,3,10.28,10.28,0,0,0,0,15.11Z" transform="translate(-4.33 -7.68)"/></svg>