<svg id="Layer_1" data-name="Layer 1" xmlns="http://www.w3.org/2000/svg" viewBox="0 0 85.21 94.77"><defs><style>.cls-1{fill:#231f20;}</style></defs><title>icon_coupon</title><path class="cls-1" d="M33.16,24.41a11.84,11.84,0,1,1-8.37,3.47,11.8,11.8,0,0,1,8.37-3.47ZM92.33,6V96.43a2.15,2.15,0,0,1-2.86,2l-39.75-14L10,98.45a2.15,2.15,0,0,1-2.86-2V6A2.15,2.15,0,0,1,9.27,3.81H90.19A2.15,2.15,0,0,1,92.33,6ZM11.86,8.55V92.78L49,79.67a2.07,2.07,0,0,1,1.43,0L87.6,92.78V8.55ZM66.3,48.08a11.84,11.84,0,1,1-8.37,3.47,11.8,11.8,0,0,1,8.37-3.47Zm5,6.81a7.12,7.12,0,1,0,2.08,5,7.06,7.06,0,0,0-2.08-5Zm1.52-26.57L30,71.19a2.15,2.15,0,0,1-3,0l-.31-.31a2.15,2.15,0,0,1,0-3L69.5,25a2.15,2.15,0,0,1,3,0l.31.31a2.15,2.15,0,0,1,0,3Zm-34.66,2.9a7.12,7.12,0,1,0,2.08,5,7.06,7.06,0,0,0-2.08-5Z" transform="translate(-7.13 -3.81)"/></svg>