<svg id="Layer_1" data-name="Layer 1" xmlns="http://www.w3.org/2000/svg" viewBox="0 0 88.55 88.54"><defs><style>.cls-1{fill:#231f20;}</style></defs><title>icon_edit</title><path class="cls-1" d="M13,73.67V89.25H28.61L13,73.67ZM80.9,46.54,55.77,21.39,66.71,10.45a10.18,10.18,0,0,1,14.38,0L91.86,21.2a10.19,10.19,0,0,1,0,14.39l-11,11Zm0,0L32.42,95l-1,1H9.36a3.08,3.08,0,0,1-3.07-3.07V70.86l1-1L55.77,21.38ZM33.41,84.44l42.7-42.69L60.54,26.19,17.84,68.87,33.41,84.44ZM80.9,37l6.16-6.16a3.42,3.42,0,0,0,0-4.8L76.3,15.24a3.42,3.42,0,0,0-4.8,0l-6.16,6.16L80.9,37Z" transform="translate(-6.28 -7.47)"/></svg>