<svg id="Layer_1" data-name="Layer 1" xmlns="http://www.w3.org/2000/svg" viewBox="0 0 90.1 94.84"><defs><style>.cls-1{fill:#231f20;}</style></defs><title>icon_gift</title><path class="cls-1" d="M10.31,94.86H48.25V61.67H10.31V94.86ZM36.19,46.62,44.61,38H10.31v19H48.25V41l-8.66,8.92a2.15,2.15,0,0,1-3,0l-.31-.3a2.15,2.15,0,0,1,0-3Zm20-8.67L65,46.62a2.15,2.15,0,0,1,0,3l-.3.31a2.15,2.15,0,0,1-3,0L53,41.41V56.92H90.92V38Zm34.7,23.71H53V94.86H90.92V61.67ZM50.35,28.5C56.07,14.3,62.91,7.6,69,5.53a12.39,12.39,0,0,1,15,5.3,14.94,14.94,0,0,1-.79,16.7,20.21,20.21,0,0,1-6.47,5.69H93.52a2.15,2.15,0,0,1,2.15,2.15V97.45a2.15,2.15,0,0,1-2.15,2.15H7.72a2.15,2.15,0,0,1-2.15-2.15V35.36a2.15,2.15,0,0,1,2.15-2.15H24.36A20.07,20.07,0,0,1,18,27.53a15.12,15.12,0,0,1-.78-16.71A12.14,12.14,0,0,1,32.13,5.57c5.94,2.11,12.63,8.81,18.22,22.93ZM70.49,10C65.17,11.83,59,18.47,53.62,33.21h2.09c13.1-.14,20.37-3.87,23.65-8.45A10.24,10.24,0,0,0,80,13.33,7.82,7.82,0,0,0,70.49,10ZM47.07,33.21C41.84,18.53,35.77,11.88,30.55,10a7.58,7.58,0,0,0-9.31,3.27,10.42,10.42,0,0,0,.61,11.5c3.21,4.55,10.35,8.27,23.18,8.41h2Z" transform="translate(-5.57 -4.76)"/></svg>