<svg id="Layer_1" data-name="Layer 1" xmlns="http://www.w3.org/2000/svg" viewBox="0 0 74.49 93.11"><defs><style>.cls-1{fill:#231f20;}</style></defs><title>icon_receipt</title><path class="cls-1" d="M27.35,6l.05.15a4.66,4.66,0,0,0,1.71,2.25,4.58,4.58,0,0,0,2.69.85,4.64,4.64,0,0,0,2.69-.84A4.73,4.73,0,0,0,36.2,6.2l.05-.15a2.08,2.08,0,0,1,2-1.41H44A2.08,2.08,0,0,1,46,6L46,6.2a4.66,4.66,0,0,0,1.71,2.25,4.58,4.58,0,0,0,2.69.85,4.64,4.64,0,0,0,2.69-.84A4.73,4.73,0,0,0,54.82,6.2l.05-.15a2.08,2.08,0,0,1,2-1.41h5.75A2.08,2.08,0,0,1,64.6,6l.05.15a4.66,4.66,0,0,0,1.71,2.25A4.58,4.58,0,0,0,69,9.3a4.64,4.64,0,0,0,2.69-.84A4.73,4.73,0,0,0,73.44,6.2l.05-.15a2.08,2.08,0,0,1,2-1.41H85.56a2.11,2.11,0,0,1,2.11,2.11V95.64a2.11,2.11,0,0,1-2.11,2.11H75.49a2.08,2.08,0,0,1-2-1.37,4.78,4.78,0,0,0-1.78-2.44A4.58,4.58,0,0,0,69,93.1a4.64,4.64,0,0,0-2.69.84,4.83,4.83,0,0,0-1.78,2.45,2.08,2.08,0,0,1-2,1.37H56.87a2.08,2.08,0,0,1-2-1.37,4.77,4.77,0,0,0-1.78-2.44,4.58,4.58,0,0,0-2.69-.85,4.64,4.64,0,0,0-2.69.84A4.84,4.84,0,0,0,46,96.39a2.08,2.08,0,0,1-2,1.37H38.24a2.08,2.08,0,0,1-2-1.37,4.78,4.78,0,0,0-1.78-2.44,4.58,4.58,0,0,0-2.69-.85,4.64,4.64,0,0,0-2.69.84,4.83,4.83,0,0,0-1.78,2.45,2.08,2.08,0,0,1-2,1.37H15.29a2.11,2.11,0,0,1-2.11-2.11V6.75a2.11,2.11,0,0,1,2.11-2.11H25.36a2.08,2.08,0,0,1,2,1.41ZM61.85,74.47h9.75a2.11,2.11,0,0,1,2.11,2.11V77a2.11,2.11,0,0,1-2.11,2.11H61.85A2.11,2.11,0,0,1,59.74,77v-.44a2.11,2.11,0,0,1,2.11-2.11Zm-32.59,0H53a2.11,2.11,0,0,1,2.11,2.11V77A2.11,2.11,0,0,1,53,79.13H29.26A2.11,2.11,0,0,1,27.15,77v-.44a2.11,2.11,0,0,1,2.11-2.11ZM57.63,51.2H29.26a2.11,2.11,0,0,1-2.11-2.11v-.44a2.11,2.11,0,0,1,2.11-2.11H57.63a2.11,2.11,0,0,1,2.11,2.11v.44a2.11,2.11,0,0,1-2.11,2.11Zm14,0H66.5a2.11,2.11,0,0,1-2.11-2.11v-.44a2.11,2.11,0,0,1,2.11-2.11h5.09a2.11,2.11,0,0,1,2.11,2.11v.44a2.11,2.11,0,0,1-2.11,2.11Zm-42.33-14H71.59a2.11,2.11,0,0,1,2.11,2.11v.44a2.11,2.11,0,0,1-2.11,2.11H29.26a2.11,2.11,0,0,1-2.11-2.11v-.44a2.11,2.11,0,0,1,2.11-2.11Zm18.62-9.31H71.59A2.11,2.11,0,0,1,73.7,30v.44a2.11,2.11,0,0,1-2.11,2.11H47.88a2.11,2.11,0,0,1-2.11-2.11V30a2.11,2.11,0,0,1,2.11-2.11Zm-18.62,0H39A2.11,2.11,0,0,1,41.11,30v.44A2.11,2.11,0,0,1,39,32.57H29.26a2.11,2.11,0,0,1-2.11-2.11V30a2.11,2.11,0,0,1,2.11-2.11ZM23.74,9.3H17.83V93.1h5.91a9.28,9.28,0,0,1,13.42-2.95,9.22,9.22,0,0,1,2.7,2.95h2.5a9.28,9.28,0,0,1,13.42-2.95,9.22,9.22,0,0,1,2.7,2.95H61A9.28,9.28,0,0,1,74.4,90.15a9.22,9.22,0,0,1,2.7,2.95H83V9.3H77.1A9.32,9.32,0,0,1,69,14,9.38,9.38,0,0,1,61,9.3h-2.5A9.32,9.32,0,0,1,50.42,14,9.38,9.38,0,0,1,42.36,9.3h-2.5A9.32,9.32,0,0,1,31.8,14,9.38,9.38,0,0,1,23.74,9.3Z" transform="translate(-13.18 -4.64)"/></svg>