<svg id="Layer_1" data-name="Layer 1" xmlns="http://www.w3.org/2000/svg" viewBox="0 0 91.77 87.01"><defs><style>.cls-1{fill:#231f20;}</style></defs><title>icon_shopping</title><path class="cls-1" d="M11.67,41.7H24.57L38.52,9.16A2.19,2.19,0,0,1,41.39,8l.41.17a2.19,2.19,0,0,1,1.15,2.88L29.81,41.7h41L57.67,11.06a2.19,2.19,0,0,1,1.15-2.88L59.23,8A2.19,2.19,0,0,1,62.1,9.16L76,41.7H94a2.19,2.19,0,0,1,2.19,2.19v.45A2.19,2.19,0,0,1,94,46.54H91.13L86.95,88.31a7.25,7.25,0,0,1-7.2,6.53H20.87a7.25,7.25,0,0,1-7.2-6.53L9.49,46.54H6.61a2.19,2.19,0,0,1-2.19-2.19V43.9a2.19,2.19,0,0,1,2.19-2.19h5.06ZM52.72,58.38V90H67.21V58.39A2.19,2.19,0,0,1,69.4,56.2h.45A2.19,2.19,0,0,1,72,58.39V90h7.7a2.38,2.38,0,0,0,2.41-2.17l4.13-41.3h-72l4.13,41.3A2.38,2.38,0,0,0,20.87,90h7.7V58.38a2.19,2.19,0,0,1,2.19-2.19h.45a2.19,2.19,0,0,1,2.19,2.19V90H47.89V58.38a2.19,2.19,0,0,1,2.19-2.19h.45a2.19,2.19,0,0,1,2.19,2.19Z" transform="translate(-4.42 -7.83)"/></svg>