<svg id="Layer_1" data-name="Layer 1" xmlns="http://www.w3.org/2000/svg" viewBox="0 0 84.06 88.44"><defs><style>.cls-1{fill:#fff;}</style></defs><title>icon_account_white</title><path class="cls-1" d="M42,0A24.34,24.34,0,1,1,24.8,7.13,24.34,24.34,0,0,1,42,0ZM73.5,64.92C79.82,71.37,82.56,77.75,84,86.1a2,2,0,0,1-2,2.34H2A2,2,0,0,1,0,86.1c1.42-8.35,4.15-14.73,10.47-21.18s13.24-9.76,21.67-11.8a2,2,0,0,1,2.23,1L42,67.94l7.6-13.85a2,2,0,0,1,2.23-1c8.43,2,15.42,5.43,21.67,11.81ZM70.36,68A38.6,38.6,0,0,0,52.58,57.82L45,71.63a3.35,3.35,0,0,1-1.3,1.3,3.49,3.49,0,0,1-3.43,0A3.43,3.43,0,0,1,39,71.62l-7.57-13.8A38.62,38.62,0,0,0,13.67,68,33.14,33.14,0,0,0,4.86,84H79.17a33.14,33.14,0,0,0-8.81-16ZM56.07,10.25A19.9,19.9,0,1,0,61.9,24.32,19.9,19.9,0,0,0,56.07,10.25Z" transform="translate(0.06 0)"/></svg>