<svg id="Layer_1" data-name="Layer 1" xmlns="http://www.w3.org/2000/svg" viewBox="0 0 93.93 93.95"><defs><style>.cls-1{fill:#fff;}</style></defs><title>icon_homepage_white</title><path class="cls-1" d="M89,89V37.91L47,5.63,5,37.92V89ZM0,91.71V36.61a2.17,2.17,0,0,1,.87-1.77L45.44.58l.14-.1a2.21,2.21,0,0,1,2.75,0l.14.1L93,34.84a2.18,2.18,0,0,1,.87,1.78V91.71a2.24,2.24,0,0,1-2.24,2.24H2.24A2.25,2.25,0,0,1,0,91.71Z" transform="translate(0.04 0)"/><polygon class="cls-1" points="73.05 39.77 73.05 38.13 21.51 38.13 21.51 39.77 43.81 39.77 43.81 79.39 38.9 79.39 38.9 81.06 55.66 81.06 55.66 79.39 50.75 79.39 50.75 39.77 73.05 39.77"/></svg>