<svg id="Layer_1" data-name="Layer 1" xmlns="http://www.w3.org/2000/svg" viewBox="0 0 84.01 88.44"><defs><style>.cls-1{fill:#231f20;}</style></defs><title>icon_account</title><path class="cls-1" d="M50.33,7.46a24.34,24.34,0,1,1-17.2,7.13,24.25,24.25,0,0,1,17.2-7.13Zm31.5,64.92c6.32,6.45,9.06,12.83,10.47,21.18a2,2,0,0,1-2,2.34h-80a2,2,0,0,1-2-2.34c1.42-8.35,4.15-14.73,10.47-21.18s13.24-9.76,21.67-11.8a2,2,0,0,1,2.23,1L50.33,75.4l7.6-13.85a2,2,0,0,1,2.23-1c8.43,2,15.42,5.43,21.67,11.81Zm-3.14,3.09A38.6,38.6,0,0,0,60.91,65.28L53.34,79.09a3.35,3.35,0,0,1-1.3,1.3,3.49,3.49,0,0,1-3.43,0,3.43,3.43,0,0,1-1.3-1.31L39.74,65.28A38.62,38.62,0,0,0,22,75.48a33.14,33.14,0,0,0-8.81,16H87.5a33.14,33.14,0,0,0-8.81-16ZM64.4,17.71a19.9,19.9,0,1,0,5.83,14.07A19.84,19.84,0,0,0,64.4,17.71Z" transform="translate(-8.33 -7.46)"/></svg>